<svg width="39" height="18" viewBox="0 0 39 18" fill="none" xmlns="http://www.w3.org/2000/svg">
<path d="M19.2939 1.11168L19.2532 0.362778L19.2939 1.11168ZM36.3409 10.3739C36.7419 10.4776 37.1511 10.2366 37.2548 9.8356L38.9449 3.3006C39.0486 2.89958 38.8076 2.49042 38.4065 2.38671C38.0055 2.283 37.5963 2.52401 37.4926 2.92503L35.9904 8.73392L30.1815 7.23165C29.7805 7.12793 29.3713 7.36895 29.2676 7.76997C29.1639 8.17099 29.4049 8.58016 29.8059 8.68387L36.3409 10.3739ZM1.00031 16.7053C1.68871 17.003 1.68864 17.0032 1.6886 17.0033C1.68861 17.0032 1.68859 17.0033 1.68863 17.0032C1.6887 17.003 1.68887 17.0026 1.68913 17.002C1.68966 17.0008 1.69059 16.9987 1.6919 16.9957C1.69453 16.9897 1.69872 16.9802 1.70447 16.9673C1.71598 16.9414 1.73372 16.9019 1.75766 16.8496C1.80554 16.7451 1.87821 16.5896 1.97538 16.3902C2.16977 15.9914 2.46193 15.4176 2.84958 14.7256C3.62577 13.3401 4.78031 11.4889 6.29397 9.62138C9.34001 5.86334 13.7366 2.16424 19.3345 1.86058L19.2532 0.362778C13.0225 0.700769 8.27226 4.7985 5.12869 8.67687C3.54755 10.6276 2.34657 12.5545 1.54095 13.9925C1.1377 14.7123 0.832372 15.3117 0.627009 15.733C0.524303 15.9438 0.446525 16.1101 0.393936 16.2249C0.367639 16.2823 0.347633 16.3268 0.333951 16.3576C0.327109 16.373 0.321848 16.3849 0.318172 16.3933C0.316333 16.3975 0.314891 16.4008 0.313845 16.4032C0.313323 16.4044 0.312899 16.4054 0.312574 16.4061C0.312412 16.4065 0.312243 16.4069 0.312162 16.4071C0.312018 16.4074 0.311898 16.4077 1.00031 16.7053ZM19.3345 1.86058C25.0309 1.55157 29.1658 3.60246 31.8849 5.72982C33.2474 6.79581 34.2536 7.88102 34.9173 8.69705C35.2488 9.10468 35.494 9.44395 35.6544 9.67835C35.7346 9.79551 35.7936 9.88634 35.8315 9.94626C35.8505 9.97621 35.8642 9.99842 35.8727 10.0123C35.8769 10.0193 35.8799 10.0241 35.8815 10.0269C35.8823 10.0282 35.8828 10.029 35.883 10.0293C35.883 10.0294 35.883 10.0294 35.883 10.0293C35.8829 10.0292 35.8828 10.029 35.8828 10.029C35.8826 10.0287 35.8825 10.0285 36.5287 9.64781C37.1749 9.26716 37.1747 9.26681 37.1745 9.26643C37.1744 9.26626 37.1741 9.26584 37.1739 9.26549C37.1735 9.2648 37.173 9.26396 37.1724 9.26298C37.1713 9.26103 37.1698 9.25853 37.168 9.25548C37.1643 9.24938 37.1593 9.24109 37.1529 9.23069C37.1403 9.2099 37.1222 9.18065 37.0987 9.14354C37.0516 9.06933 36.9829 8.96361 36.8922 8.83106C36.7108 8.56606 36.4411 8.19333 36.081 7.75057C35.3614 6.86582 34.2768 5.69668 32.8092 4.54843C29.868 2.24731 25.3855 0.03013 19.2532 0.362778L19.3345 1.86058Z" fill="white"/>
</svg>
