<svg width="21" height="21" viewBox="0 0 21 21" fill="none" xmlns="http://www.w3.org/2000/svg">
<g clip-path="url(#clip0_1976_223)">
<path d="M20.3532 6.67343C20.3062 5.60786 20.1339 4.87528 19.887 4.2405C19.6324 3.56669 19.2406 2.96343 18.7274 2.46194C18.2259 1.95264 17.6186 1.5569 16.9526 1.30623C16.3142 1.05939 15.5854 0.887069 14.5198 0.840088C13.4463 0.789127 13.1055 0.777344 10.3827 0.777344C7.65996 0.777344 7.31915 0.789127 6.2496 0.836109C5.18402 0.88309 4.45145 1.05556 3.81682 1.30225C3.14286 1.5569 2.5396 1.94866 2.03811 2.46194C1.52881 2.96343 1.13322 3.57067 0.8824 4.23667C0.635557 4.87528 0.463241 5.60388 0.416259 6.66945C0.365299 7.74298 0.353516 8.08379 0.353516 10.8066C0.353516 13.5293 0.365299 13.8702 0.412281 14.9397C0.459262 16.0053 0.631731 16.7379 0.878574 17.3726C1.13322 18.0464 1.52881 18.6497 2.03811 19.1512C2.5396 19.6605 3.14684 20.0562 3.81284 20.3069C4.45145 20.5538 5.18005 20.7261 6.24577 20.7731C7.31517 20.8202 7.65613 20.8318 10.3789 20.8318C13.1017 20.8318 13.4425 20.8202 14.512 20.7731C15.5776 20.7261 16.3102 20.5538 16.9448 20.3069C18.2926 19.7858 19.3582 18.7203 19.8792 17.3726C20.1259 16.734 20.2984 16.0053 20.3454 14.9397C20.3924 13.8702 20.4041 13.5293 20.4041 10.8066C20.4041 8.08379 20.4002 7.74298 20.3532 6.67343ZM18.5472 14.8614C18.5041 15.8408 18.3396 16.3697 18.2024 16.7222C17.8655 17.5959 17.1721 18.2893 16.2984 18.6263C15.9458 18.7634 15.4131 18.9279 14.4375 18.9709C13.3797 19.0181 13.0625 19.0297 10.3867 19.0297C7.71092 19.0297 7.3897 19.0181 6.33576 18.9709C5.35634 18.9279 4.82746 18.7634 4.47487 18.6263C4.0401 18.4656 3.64435 18.211 3.32313 17.878C2.99013 17.5528 2.73549 17.161 2.5748 16.7262C2.43768 16.3736 2.27317 15.8408 2.23017 14.8653C2.18303 13.8076 2.1714 13.4902 2.1714 10.8144C2.1714 8.13858 2.18303 7.81736 2.23017 6.76357C2.27317 5.78415 2.43768 5.25527 2.5748 4.90268C2.73549 4.46775 2.99013 4.07216 3.32711 3.75079C3.65216 3.41779 4.04392 3.16314 4.47885 3.00261C4.83144 2.86549 5.3643 2.70098 6.33974 2.65782C7.3975 2.61084 7.7149 2.59906 10.3905 2.59906C13.0703 2.59906 13.3876 2.61084 14.4415 2.65782C15.4209 2.70098 15.9498 2.86549 16.3024 3.00261C16.7372 3.16314 17.1329 3.41779 17.4541 3.75079C17.7871 4.07599 18.0418 4.46775 18.2024 4.90268C18.3396 5.25527 18.5041 5.78798 18.5472 6.76357C18.5942 7.82134 18.606 8.13858 18.606 10.8144C18.606 13.4902 18.5942 13.8036 18.5472 14.8614Z" fill="white"/>
<path d="M10.3832 5.65479C7.53904 5.65479 5.23145 7.96223 5.23145 10.8065C5.23145 13.6508 7.53904 15.9583 10.3832 15.9583C13.2275 15.9583 15.5349 13.6508 15.5349 10.8065C15.5349 7.96223 13.2275 5.65479 10.3832 5.65479ZM10.3832 14.1483C8.53805 14.1483 7.04138 12.6518 7.04138 10.8065C7.04138 8.96124 8.53805 7.46472 10.3832 7.46472C12.2285 7.46472 13.725 8.96124 13.725 10.8065C13.725 12.6518 12.2285 14.1483 10.3832 14.1483Z" fill="white"/>
<path d="M16.9407 5.45123C16.9407 6.1154 16.4022 6.65392 15.7379 6.65392C15.0737 6.65392 14.5352 6.1154 14.5352 5.45123C14.5352 4.78691 15.0737 4.24854 15.7379 4.24854C16.4022 4.24854 16.9407 4.78691 16.9407 5.45123Z" fill="white"/>
</g>
<defs>
<clipPath id="clip0_1976_223">
<rect width="20.0545" height="20.0545" fill="white" transform="translate(0.318359 0.777344)"/>
</clipPath>
</defs>
</svg>
