<svg width="18" height="19" viewBox="0 0 18 19" fill="none" xmlns="http://www.w3.org/2000/svg">
<g clip-path="url(#clip0_1963_507)">
<path d="M17.982 5.31646C17.9398 4.36005 17.7852 3.70253 17.5636 3.13278C17.3351 2.528 16.9834 1.98654 16.5227 1.53643C16.0726 1.07931 15.5276 0.724105 14.9298 0.499116C14.3568 0.277561 13.7027 0.122898 12.7463 0.08073C11.7827 0.0349905 11.4768 0.0244141 9.033 0.0244141C6.58917 0.0244141 6.28328 0.0349905 5.3233 0.0771587C4.36689 0.119327 3.70936 0.274127 3.13975 0.495545C2.53483 0.724105 1.99338 1.07574 1.54326 1.53643C1.08614 1.98654 0.731078 2.53157 0.505952 3.12934C0.284397 3.70253 0.129734 4.35648 0.0875659 5.31289C0.0418264 6.27644 0.03125 6.58234 0.03125 9.02617C0.03125 11.47 0.0418264 11.7759 0.0839946 12.7359C0.126163 13.6923 0.280963 14.3498 0.502518 14.9196C0.731078 15.5243 1.08614 16.0658 1.54326 16.5159C1.99338 16.973 2.53841 17.3282 3.13618 17.5532C3.70936 17.7748 4.36332 17.9294 5.31986 17.9716C6.2797 18.0139 6.58573 18.0244 9.02957 18.0244C11.4734 18.0244 11.7793 18.0139 12.7393 17.9716C13.6957 17.9294 14.3532 17.7748 14.9228 17.5532C16.1325 17.0855 17.0889 16.1291 17.5566 14.9196C17.778 14.3464 17.9328 13.6923 17.975 12.7359C18.0172 11.7759 18.0277 11.47 18.0277 9.02617C18.0277 6.58234 18.0242 6.27644 17.982 5.31646ZM16.3611 12.6656C16.3223 13.5446 16.1747 14.0193 16.0516 14.3358C15.7492 15.12 15.1268 15.7423 14.3426 16.0448C14.0262 16.1679 13.548 16.3155 12.6724 16.3541C11.723 16.3964 11.4382 16.4069 9.03657 16.4069C6.63491 16.4069 6.3466 16.3964 5.40063 16.3541C4.52155 16.3155 4.04685 16.1679 3.73038 16.0448C3.34015 15.9006 2.98495 15.672 2.69664 15.3731C2.39775 15.0812 2.16919 14.7296 2.02497 14.3394C1.9019 14.0229 1.75424 13.5446 1.71564 12.6691C1.67334 11.7197 1.6629 11.4348 1.6629 9.03318C1.6629 6.63151 1.67334 6.3432 1.71564 5.39737C1.75424 4.51829 1.9019 4.04359 2.02497 3.72712C2.16919 3.33675 2.39775 2.98169 2.70021 2.69324C2.99196 2.39435 3.34359 2.16579 3.73395 2.02171C4.05042 1.89864 4.52869 1.75098 5.4042 1.71224C6.3536 1.67008 6.63848 1.6595 9.04001 1.6595C11.4452 1.6595 11.73 1.67008 12.676 1.71224C13.555 1.75098 14.0297 1.89864 14.3462 2.02171C14.7364 2.16579 15.0916 2.39435 15.3799 2.69324C15.6788 2.98512 15.9074 3.33675 16.0516 3.72712C16.1747 4.04359 16.3223 4.52172 16.3611 5.39737C16.4032 6.34677 16.4138 6.63151 16.4138 9.03318C16.4138 11.4348 16.4032 11.7162 16.3611 12.6656Z" fill="#19713E"/>
<path d="M9.03313 4.40234C6.48037 4.40234 4.40918 6.4734 4.40918 9.0263C4.40918 11.5792 6.48037 13.6503 9.03313 13.6503C11.586 13.6503 13.6571 11.5792 13.6571 9.0263C13.6571 6.4734 11.586 4.40234 9.03313 4.40234ZM9.03313 12.0257C7.37703 12.0257 6.03369 10.6825 6.03369 9.0263C6.03369 7.37006 7.37703 6.02685 9.03313 6.02685C10.6894 6.02685 12.0326 7.37006 12.0326 9.0263C12.0326 10.6825 10.6894 12.0257 9.03313 12.0257V12.0257Z" fill="#19713E"/>
<path d="M14.9198 4.21913C14.9198 4.81526 14.4365 5.29861 13.8402 5.29861C13.2441 5.29861 12.7607 4.81526 12.7607 4.21913C12.7607 3.62287 13.2441 3.13965 13.8402 3.13965C14.4365 3.13965 14.9198 3.62287 14.9198 4.21913V4.21913Z" fill="#19713E"/>
</g>
<defs>
<clipPath id="clip0_1963_507">
<rect width="18" height="18" fill="white" transform="translate(0 0.0244141)"/>
</clipPath>
</defs>
</svg>
