<svg width="124" height="45" viewBox="0 0 124 45" fill="none" xmlns="http://www.w3.org/2000/svg">
<path d="M58.5009 35.8196H60.6018V42.1224H58.5009V35.8196ZM54.299 30.0494H56.4H58.5009H60.6018V27.9485H58.5009H56.4H54.299H52.1981V30.0494H54.299ZM56.4 21.6456H58.5009V19.5447H56.4H54.299H52.1981V21.6456H54.299H56.4ZM54.299 23.7466H52.1981V21.6456H50.0971V23.7466V25.8475V27.9485H52.1981V25.8475H54.299H56.4H58.5009V23.7466H56.4H54.299ZM41.7821 27.9485V25.8475V23.7466H43.8831H45.984V21.6456H43.8831H41.7821V19.5447H39.6812V21.6456H37.5802V23.7466H39.6812V25.8475V27.9485V30.0494H41.7821H43.8831H45.984V27.9485H43.8831H41.7821V27.9485ZM30.8483 13.375C32.9049 13.375 34.9615 13.375 37.018 13.375C37.018 14.0556 37.018 14.751 37.018 15.4316C34.2809 15.4316 31.5289 15.4316 28.7918 15.4316C28.7918 16.8075 28.7918 18.1687 28.7918 19.5447C30.1678 19.5447 31.5289 19.5447 32.9049 19.5447C32.9049 20.9207 32.9049 22.2818 32.9049 23.6578C32.2243 23.6578 31.5289 23.6578 30.8483 23.6578C30.8483 22.9772 30.8483 22.2818 30.8483 21.6012C30.1678 21.6012 29.4724 21.6012 28.7918 21.6012C28.7918 23.9981 28.7918 26.3949 28.7918 28.7918C28.1112 28.7918 27.4158 28.7918 26.7352 28.7918C26.7352 29.8127 26.7352 30.8484 26.7352 31.8692C26.0546 31.8692 25.3593 31.8692 24.6787 31.8692C24.6787 32.5498 24.6787 33.2452 24.6787 33.9258C23.9981 33.9258 23.3027 33.9258 22.6221 33.9258C22.6221 36.6629 22.6221 39.4149 22.6221 42.152C23.3027 42.152 23.9981 42.152 24.6787 42.152C24.6787 42.8326 24.6787 43.528 24.6787 44.2086C23.3027 44.2086 21.9415 44.2086 20.5656 44.2086C20.5656 42.152 20.5656 40.0955 20.5656 38.0389C19.885 38.0389 19.1896 38.0389 18.509 38.0389C18.509 37.3583 18.509 36.6629 18.509 35.9823C17.8284 35.9823 17.133 35.9823 16.4525 35.9823C16.4525 36.6629 16.4525 37.3583 16.4525 38.0389C15.7719 38.0389 15.0765 38.0389 14.3959 38.0389C14.3959 38.7195 14.3959 39.4149 14.3959 40.0955C13.7153 40.0955 13.0199 40.0955 12.3393 40.0955C12.3393 40.776 12.3393 41.4714 12.3393 42.152C13.0199 42.152 13.7153 42.152 14.3959 42.152C14.3959 42.8326 14.3959 43.528 14.3959 44.2086C13.0199 44.2086 11.6588 44.2086 10.2828 44.2086C10.2828 41.4714 10.2828 38.7195 10.2828 35.9823C9.60219 35.9823 8.90681 35.9823 8.22623 35.9823C8.22623 35.3018 8.22623 34.6064 8.22623 33.9258C7.54564 33.9258 6.85026 33.9258 6.16967 33.9258C6.16967 33.2452 6.16967 32.5498 6.16967 31.8692C5.48908 31.8692 4.7937 31.8692 4.11311 31.8692C4.11311 31.1886 4.11311 30.4933 4.11311 29.8127C3.43253 29.8127 2.73714 29.8127 2.05656 29.8127C2.05656 29.1321 2.05656 28.4367 2.05656 27.7561C1.37597 27.7561 0.680587 27.7561 0 27.7561C0 23.643 0 19.5299 0 15.4168C0.680587 15.4168 1.37597 15.4168 2.05656 15.4168C2.05656 16.7927 2.05656 18.1539 2.05656 19.5299C2.73714 19.5299 3.43253 19.5299 4.11311 19.5299C4.11311 20.2105 4.11311 20.9059 4.11311 21.5864C4.7937 21.5864 5.48908 21.5864 6.16967 21.5864C6.16967 22.267 6.16967 22.9624 6.16967 23.643C7.54564 23.643 8.90681 23.643 10.2828 23.643C10.2828 22.9624 10.2828 22.267 10.2828 21.5864C10.9634 21.5864 11.6588 21.5864 12.3393 21.5864C12.3393 20.9059 12.3393 20.2105 12.3393 19.5299C13.3602 19.5299 14.3959 19.5299 15.4168 19.5299C15.4168 18.8493 15.4168 18.1539 15.4168 17.4733C16.4377 17.4733 17.4733 17.4733 18.4942 17.4733C18.4942 16.7927 18.4942 16.0974 18.4942 15.4168C19.1748 15.4168 19.8702 15.4168 20.5508 15.4168C20.5508 10.9634 20.5508 6.50996 20.5508 2.05656C21.2314 2.05656 21.9267 2.05656 22.6073 2.05656C22.6073 1.37597 22.6073 0.680587 22.6073 0C28.0964 0 33.5707 0 39.0598 0C39.0598 0.680587 39.0598 1.37597 39.0598 2.05656C39.7404 2.05656 40.4357 2.05656 41.1163 2.05656C41.1163 5.13399 41.1163 8.22623 41.1163 11.3037C37.6838 11.3037 34.2661 11.3037 30.8336 11.3037C30.8483 12.0138 30.8483 12.6944 30.8483 13.375ZM26.7352 3.09223C26.0546 3.09223 25.3593 3.09223 24.6787 3.09223C24.6787 3.77282 24.6787 4.4682 24.6787 5.14879C25.3593 5.14879 26.0546 5.14879 26.7352 5.14879C26.7352 4.4682 26.7352 3.78761 26.7352 3.09223ZM45.984 35.8196V33.7187H43.8831V35.8196V37.9205H41.7821H39.6812V35.8196V33.7187H37.5802V35.8196V37.9205V40.0215H39.6812H41.7821H43.8831V42.1224V44.2234H45.984V42.1224V40.0215H48.085V37.9205H45.984V35.8196ZM45.984 27.9485H48.085V25.8475H45.984V27.9485ZM50.0971 35.8196V42.1224H52.1981V35.8196H50.0971ZM52.1981 44.2234H58.5009V42.1224H52.1981V44.2234V44.2234ZM58.5009 33.7187H52.1981V35.8196H58.5009V33.7187ZM96.3327 37.0772H95.075H93.8174V38.3348H95.075H96.3327H97.5903V37.0772H96.3327ZM77.4094 21.6456H75.3084V30.0494H77.4094V21.6456ZM81.6113 25.8475V21.6456H79.5103V25.8475H81.6113ZM102.635 38.3348H103.893H105.151V37.0772H103.893H102.635H101.378V38.3348H102.635ZM85.8131 30.0494V21.6456H83.7122V30.0494H85.8131ZM124 33.7187V44.2234H75.3084V33.7187H124ZM83.7122 35.8196H78.667V37.0772H77.4094V38.3348V39.5924V40.85H78.667V42.1076H83.7122V40.85H78.667V39.5924H83.7122V38.3348H78.667V37.0772H83.7122V35.8196ZM91.2874 35.8196H90.0298V37.0772H88.7722V38.3348H87.5146V37.0772H86.257V35.8196H84.9994V37.0772H86.257V38.3348H87.5146V39.5924H86.257V40.85H84.9994V42.1076H86.257V40.85H87.5146V39.5924H88.7722V40.85H90.0298V42.1076H91.2874V40.85H90.0298V39.5924H88.7722V38.3348H90.0298V37.0772H91.2874V35.8196ZM98.8479 37.0772H97.5903V35.8196H96.3327H95.075H93.8174H92.5598V37.0772V38.3348V39.5924V40.85V42.1076H93.8174V40.85V39.5924H95.075H96.3327H97.5903V38.3348H98.8479V37.0772ZM106.423 37.0772H105.165V35.8196H103.908H102.65H101.393V37.0772H100.135V38.3348V39.5924V40.85V42.1076H101.393V40.85V39.5924H102.65H103.908H105.165V40.85V42.1076H106.423V40.85V39.5924V38.3348V37.0772ZM113.984 35.8196H112.726H111.468H110.211H108.953H107.695V37.0772H108.953H110.211V38.3348V39.5924V40.85V42.1076H111.468V40.85V39.5924V38.3348V37.0772H112.726H113.984V35.8196ZM121.559 35.8196H116.514V37.0772H115.256V38.3348V39.5924H120.301V40.85H115.256V42.1076H120.301V40.85H121.559V39.5924V38.3348H116.514V37.0772H121.559V35.8196ZM83.7122 19.5447H81.6113V21.6456H83.7122V19.5447ZM71.1066 23.7466H64.8037V25.8475H71.1066V27.9485H64.8037V30.0494H73.2075V21.6456H71.1066V23.7466V23.7466ZM62.7028 25.8475V27.9485H64.8037V25.8475H62.7028ZM71.1066 33.7187H69.0056V37.9205H64.8037V33.7187H62.7028V40.0215H69.0056V44.2234H71.1066V40.0215H73.2075V37.9205H71.1066V33.7187ZM62.7028 19.5447V21.6456H71.1066V19.5447H62.7028ZM58.5009 23.7466H60.6018V21.6456H58.5009V23.7466ZM79.5103 19.5447H77.4094V21.6456H79.5103V19.5447Z" fill="#1A713D"/>
</svg>
