<svg width="686" height="299" viewBox="0 0 686 299" fill="none" xmlns="http://www.w3.org/2000/svg">
<path d="M366.9 146.3H352.7V132.1H366.9H381.1H395.3V146.3H381.1H366.9ZM366.9 160.5H352.7V146.3H338.5V160.5V174.7V188.9H352.7V174.7H366.9H381.1H395.3V160.5H381.1H366.9ZM395.3 160.5H409.5V146.3H395.3V160.5ZM366.9 203.1H381.1H395.3H409.5V188.9H395.3H381.1H366.9H352.7V203.1H366.9ZM310.7 188.9H324.9V174.7H310.7V188.9V188.9ZM282.3 188.9V174.7V160.5H296.5H310.7V146.3H296.5H282.3V132.1H268.1V146.3H253.9V160.5H268.1V174.7V188.9V203.1H282.3H296.5H310.7V188.9H296.5H282.3V188.9ZM395.3 284.7H409.5V242.1H395.3V284.7ZM338.5 242.1V284.7H352.7V242.1H338.5ZM310.7 242.1V227.9H296.5V242.1V256.3H282.3H268.1V242.1V227.9H253.9V242.1V256.3V270.5H268.1H282.3H296.5V284.7V298.9H310.7V284.7V270.5H324.9V256.3H310.7V242.1V242.1ZM395.3 227.9H352.7V242.1H395.3V227.9ZM352.7 298.9H395.3V284.7H352.7V298.9ZM523.2 146.3H509V203.1H523.2V146.3ZM549.2 250.8H540.5H531.8V259.5H540.5H549.2H557.9V250.8H549.2ZM480.5 227.9H466.3V256.3H437.9V227.9H423.7V270.5H466.3V298.9H480.5V270.5H494.8V256.3H480.6V227.9H480.5ZM208.5 90.4C222.4 90.4 236.3 90.4 250.2 90.4C250.2 95 250.2 99.7 250.2 104.3C231.7 104.3 213.1 104.3 194.6 104.3C194.6 113.6 194.6 122.8 194.6 132.1C203.9 132.1 213.1 132.1 222.4 132.1C222.4 141.4 222.4 150.6 222.4 159.9C217.8 159.9 213.1 159.9 208.5 159.9C208.5 155.3 208.5 150.6 208.5 146C203.9 146 199.2 146 194.6 146C194.6 162.2 194.6 178.4 194.6 194.6C190 194.6 185.3 194.6 180.7 194.6C180.7 201.5 180.7 208.5 180.7 215.4C176.1 215.4 171.4 215.4 166.8 215.4C166.8 220 166.8 224.7 166.8 229.3C162.2 229.3 157.5 229.3 152.9 229.3C152.9 247.8 152.9 266.4 152.9 284.9C157.5 284.9 162.2 284.9 166.8 284.9C166.8 289.5 166.8 294.2 166.8 298.8C157.5 298.8 148.3 298.8 139 298.8C139 284.9 139 271 139 257.1C134.4 257.1 129.7 257.1 125.1 257.1C125.1 252.5 125.1 247.8 125.1 243.2C120.5 243.2 115.8 243.2 111.2 243.2C111.2 247.8 111.2 252.5 111.2 257.1C106.6 257.1 101.9 257.1 97.3 257.1C97.3 261.7 97.3 266.4 97.3 271C92.7 271 88 271 83.4 271C83.4 275.6 83.4 280.3 83.4 284.9C88 284.9 92.7 284.9 97.3 284.9C97.3 289.5 97.3 294.2 97.3 298.8C88 298.8 78.8 298.8 69.5 298.8C69.5 280.3 69.5 261.7 69.5 243.2C64.9 243.2 60.2 243.2 55.6 243.2C55.6 238.6 55.6 233.9 55.6 229.3C51 229.3 46.3 229.3 41.7 229.3C41.7 224.7 41.7 220 41.7 215.4C37.1 215.4 32.4 215.4 27.8 215.4C27.8 210.8 27.8 206.1 27.8 201.5C23.2 201.5 18.5 201.5 13.9 201.5C13.9 196.9 13.9 192.2 13.9 187.6C9.30001 187.6 4.6 187.6 0 187.6C0 159.8 0 132 0 104.2C4.6 104.2 9.30001 104.2 13.9 104.2C13.9 113.5 13.9 122.7 13.9 132C18.5 132 23.2 132 27.8 132C27.8 136.6 27.8 141.3 27.8 145.9C32.4 145.9 37.1 145.9 41.7 145.9C41.7 150.5 41.7 155.2 41.7 159.8C51 159.8 60.2 159.8 69.5 159.8C69.5 155.2 69.5 150.5 69.5 145.9C74.1 145.9 78.8 145.9 83.4 145.9C83.4 141.3 83.4 136.6 83.4 132C90.3 132 97.3 132 104.2 132C104.2 127.4 104.2 122.7 104.2 118.1C111.1 118.1 118.1 118.1 125 118.1C125 113.5 125 108.8 125 104.2C129.6 104.2 134.3 104.2 138.9 104.2C138.9 74.1 138.9 44 138.9 13.9C143.5 13.9 148.2 13.9 152.8 13.9C152.8 9.29999 152.8 4.6 152.8 0C189.9 0 226.9 0 264 0C264 4.6 264 9.29999 264 13.9C268.6 13.9 273.3 13.9 277.9 13.9C277.9 34.7 277.9 55.6 277.9 76.4C254.7 76.4 231.6 76.4 208.4 76.4C208.5 81.2 208.5 85.8 208.5 90.4ZM180.7 20.9C176.1 20.9 171.4 20.9 166.8 20.9C166.8 25.5 166.8 30.2 166.8 34.8C171.4 34.8 176.1 34.8 180.7 34.8C180.7 30.2 180.7 25.6 180.7 20.9ZM580 203.1V146.3H565.8V203.1H580ZM685.6 227.9V298.9H509V227.9H685.6ZM566.6 250.8H557.9V242.1H549.2H540.5H531.8H523.1V250.8V259.5V268.2V276.9V285.6H531.8V276.9V268.2H540.5H549.2V276.9H557.9V285.6H566.6V276.9H557.9V268.2V259.5H566.6V250.8V250.8ZM618.7 242.1H610V250.8V259.5V268.2V276.9H601.3H592.6H583.9V268.2V259.5V250.8V242.1H575.2V250.8V259.5V268.2V276.9H583.9V285.6H592.6H601.3H610V276.9H618.7V268.2V259.5V250.8V242.1ZM670.8 242.1H662.1V250.8V259.5V268.2H653.4V259.5H644.7V250.8H636V242.1H627.3V250.8V259.5V268.2V276.9V285.6H636V276.9V268.2V259.5H644.7V268.2H653.4V276.9H662.1V285.6H670.8V276.9V268.2V259.5V250.8V242.1ZM551.6 174.7V146.3H537.4V174.7H551.6ZM423.7 174.7V188.9H437.9V174.7H423.7ZM480.5 160.5H437.9V174.7H480.5V188.9H437.9V203.1H494.8V146.3H480.6V160.5H480.5ZM423.7 132.1V146.3H480.5V132.1H423.7ZM565.8 132.1H551.6V146.3H565.8V132.1ZM537.4 132.1H523.2V146.3H537.4V132.1Z" fill="#1A713D"/>
</svg>
