<?xml version="1.0" standalone="no"?>
<!DOCTYPE svg PUBLIC "-//W3C//DTD SVG 20010904//EN"
 "http://www.w3.org/TR/2001/REC-SVG-20010904/DTD/svg10.dtd">
<svg version="1.0" xmlns="http://www.w3.org/2000/svg"
 width="600.000000pt" height="600.000000pt" viewBox="0 0 600.000000 600.000000"
 preserveAspectRatio="xMidYMid meet">
<metadata>
Created by potrace 1.14, written by Peter Selinger 2001-2017
</metadata>
<g transform="translate(0.000000,600.000000) scale(0.100000,-0.100000)"
fill="#000000" stroke="none">
<path d="M3284 5853 l1 -138 -105 -2 c-58 -1 -121 -2 -140 -2 l-35 -1 0 -899
c1 -804 -1 -900 -15 -903 -8 -2 -70 -3 -137 -3 l-123 1 -1 -40 c0 -23 -1 -85
-1 -138 l0 -98 -42 -1 c-22 0 -116 0 -208 -1 l-166 0 -1 -96 c0 -54 0 -116 0
-139 l-1 -43 -205 0 c-157 0 -205 -3 -206 -12 -1 -7 -2 -65 -4 -128 -1 -63 -3
-120 -4 -127 -1 -9 -37 -12 -136 -10 -129 2 -135 1 -136 -18 -1 -11 -1 -73 -1
-137 0 -65 -3 -119 -7 -119 -3 -1 -126 -3 -273 -4 -237 -1 -268 0 -272 14 -3
9 -4 69 -4 134 0 65 -2 120 -5 124 -3 3 -65 5 -136 5 -93 0 -131 3 -132 11 -1
7 -3 64 -4 127 -1 63 -3 121 -4 128 -1 9 -36 12 -138 12 l-138 0 1 267 c0 148
-1 273 -3 278 -2 7 -55 11 -138 11 l-135 0 -1 -60 c-3 -383 1 -1599 5 -1604 3
-3 66 -5 139 -5 l132 0 0 -129 c0 -72 2 -134 5 -139 3 -4 44 -8 90 -8 84 0
110 -1 160 -4 l25 -2 0 -136 0 -135 125 -1 c69 -1 132 -2 140 -2 13 -1 15 -22
13 -136 -2 -100 1 -135 10 -136 7 -1 68 -2 137 -3 l125 -1 5 -140 5 -140 135
0 135 0 1 -555 2 -555 276 0 c178 0 276 3 277 10 1 5 2 67 3 138 1 121 0 127
-19 128 -11 0 -74 1 -140 2 l-120 2 0 120 c0 66 1 128 3 137 4 15 21 18 140
20 l136 3 1 135 0 135 134 3 c74 1 137 5 140 8 3 2 4 63 3 134 -1 72 1 131 5
131 5 1 68 3 141 4 l132 2 0 -139 0 -138 38 -1 c20 0 83 0 139 0 l101 1 1
-403 c0 -221 0 -409 0 -417 1 -13 38 -15 276 -15 182 -1 275 3 276 10 5 39 3
248 -1 256 -4 5 -66 10 -140 12 l-134 2 -1 552 c0 360 3 554 10 556 6 2 67 3
137 2 85 -1 128 2 131 9 2 6 3 68 2 139 -1 82 3 127 10 128 5 0 67 1 138 1 85
1 127 5 128 12 5 54 3 133 -4 144 -5 6 -6 12 -1 12 5 0 9 56 8 124 l-1 124
134 0 c73 -1 136 1 139 4 2 3 4 25 4 49 0 24 0 53 0 64 0 11 0 49 -1 85 0 63
0 75 2 103 1 18 0 129 -1 152 -1 11 -1 27 -1 35 1 8 0 40 0 70 -1 30 -1 62 0
70 1 8 1 31 0 50 -1 19 -1 42 0 50 0 8 0 40 0 70 -1 30 -1 62 0 70 1 8 1 34 1
58 l-1 42 139 0 139 0 -1 -122 c-1 -68 2 -131 7 -140 7 -16 22 -18 140 -15
l132 2 1 265 c0 146 -1 270 -4 277 -3 9 -74 12 -275 11 l-272 -1 -2 54 c-3 93
-3 102 -4 174 0 68 0 80 2 108 0 6 0 38 -1 70 -1 32 0 61 3 63 3 3 1 19 -3 35
-5 17 -5 29 0 29 5 0 7 6 5 13 -4 10 108 12 550 12 l555 0 0 45 c2 158 1 222
-4 227 -3 3 -190 6 -416 6 -296 0 -410 3 -411 11 -5 88 -2 259 5 263 4 3 318
6 695 6 l687 0 0 624 0 623 -25 1 c-14 0 -77 0 -138 0 -110 0 -113 0 -114 22
0 12 0 75 0 139 l1 118 -1113 0 -1113 0 0 -137z m556 -292 c3 -5 4 -42 3 -83
-4 -96 -4 -87 0 -135 2 -24 1 -44 -2 -44 -19 -5 -271 -4 -272 0 -1 3 -2 65 -3
138 l-2 132 41 3 c74 5 229 -2 235 -11z"/>
</g>
</svg>
