<svg width="279" height="300" viewBox="0 0 279 300" fill="none" xmlns="http://www.w3.org/2000/svg">
<path d="M209.4 90.9C223.3 90.9 237.2 90.9 251.1 90.9C251.1 95.5 251.1 100.2 251.1 104.8C232.6 104.8 214 104.8 195.5 104.8C195.5 114.1 195.5 123.3 195.5 132.6C204.8 132.6 214 132.6 223.3 132.6C223.3 141.9 223.3 151.1 223.3 160.4C218.7 160.4 214 160.4 209.4 160.4C209.4 155.8 209.4 151.1 209.4 146.5C204.8 146.5 200.1 146.5 195.5 146.5C195.5 162.7 195.5 178.9 195.5 195.1C190.9 195.1 186.2 195.1 181.6 195.1C181.6 202 181.6 209 181.6 215.9C177 215.9 172.3 215.9 167.7 215.9C167.7 220.5 167.7 225.2 167.7 229.8C163.1 229.8 158.4 229.8 153.8 229.8C153.8 248.3 153.8 266.9 153.8 285.4C158.4 285.4 163.1 285.4 167.7 285.4C167.7 290 167.7 294.7 167.7 299.3C158.4 299.3 149.2 299.3 139.9 299.3C139.9 285.4 139.9 271.5 139.9 257.6C135.3 257.6 130.6 257.6 126 257.6C126 253 126 248.3 126 243.7C121.4 243.7 116.7 243.7 112.1 243.7C112.1 248.3 112.1 253 112.1 257.6C107.5 257.6 102.8 257.6 98.2004 257.6C98.2004 262.2 98.2004 266.9 98.2004 271.5C93.6004 271.5 88.9004 271.5 84.3004 271.5C84.3004 276.1 84.3004 280.8 84.3004 285.4C88.9004 285.4 93.6004 285.4 98.2004 285.4C98.2004 290 98.2004 294.7 98.2004 299.3C88.9004 299.3 79.7004 299.3 70.4004 299.3C70.4004 280.8 70.4004 262.2 70.4004 243.7C65.8004 243.7 61.1004 243.7 56.5004 243.7C56.5004 239.1 56.5004 234.4 56.5004 229.8C51.9004 229.8 47.2004 229.8 42.6004 229.8C42.6004 225.2 42.6004 220.5 42.6004 215.9C38.0004 215.9 33.3004 215.9 28.7004 215.9C28.7004 211.3 28.7004 206.6 28.7004 202C24.1004 202 19.4004 202 14.8004 202C14.8004 197.4 14.8004 192.7 14.8004 188.1C10.2004 188.1 5.50039 188.1 0.900391 188.1C0.900391 160.3 0.900391 132.5 0.900391 104.7C5.50039 104.7 10.2004 104.7 14.8004 104.7C14.8004 114 14.8004 123.2 14.8004 132.5C19.4004 132.5 24.1004 132.5 28.7004 132.5C28.7004 137.1 28.7004 141.8 28.7004 146.4C33.3004 146.4 38.0004 146.4 42.6004 146.4C42.6004 151 42.6004 155.7 42.6004 160.3C51.9004 160.3 61.1004 160.3 70.4004 160.3C70.4004 155.7 70.4004 151 70.4004 146.4C75.0004 146.4 79.7004 146.4 84.3004 146.4C84.3004 141.8 84.3004 137.1 84.3004 132.5C91.2004 132.5 98.2004 132.5 105.1 132.5C105.1 127.9 105.1 123.2 105.1 118.6C112 118.6 119 118.6 125.9 118.6C125.9 114 125.9 109.3 125.9 104.7C130.5 104.7 135.2 104.7 139.8 104.7C139.8 74.6 139.8 44.5 139.8 14.4C144.4 14.4 149.1 14.4 153.7 14.4C153.7 9.79999 153.7 5.1 153.7 0.5C190.8 0.5 227.8 0.5 264.9 0.5C264.9 5.1 264.9 9.79999 264.9 14.4C269.5 14.4 274.2 14.4 278.8 14.4C278.8 35.2 278.8 56.1 278.8 76.9C255.6 76.9 232.5 76.9 209.3 76.9C209.4 81.7 209.4 86.3 209.4 90.9ZM181.6 21.4C177 21.4 172.3 21.4 167.7 21.4C167.7 26 167.7 30.7 167.7 35.3C172.3 35.3 177 35.3 181.6 35.3C181.6 30.7 181.6 26.1 181.6 21.4Z" fill="#1A713D"/>
</svg>
