<svg width="154" height="201" viewBox="0 0 154 201" fill="none" xmlns="http://www.w3.org/2000/svg">
<path d="M111.647 112.404V104.432H119.619V112.404H111.647ZM119.617 88.4928H111.645V96.4647H119.617V88.4928ZM103.675 96.4624V104.434H111.647V96.4624H103.675ZM127.589 104.434V96.4624H119.617V104.434H127.589ZM111.647 24.7265H119.619V16.7546H111.647V24.7265ZM119.617 0.812988H111.645V8.78492H119.617V0.812988ZM111.647 8.78492H103.675V16.7568H111.647V8.78492ZM127.589 16.7546V8.78263H119.617V16.7546H127.589ZM215.266 112.404H223.238V104.432H215.266V112.404ZM223.238 88.4928H215.266V96.4647H223.238V88.4928ZM207.296 96.4624V104.434H215.268V96.4624H207.296ZM223.238 96.4624V104.434H231.21V96.4624H223.238ZM8.02564 112.404H15.9976V104.432H8.02564V112.404ZM15.9953 88.4928H8.02564V96.4647H15.9976V88.4928H15.9953ZM0.0537109 96.4624V104.434H8.02564V96.4624H0.0537109ZM23.9672 96.4624H15.9953V104.434H23.9672V96.4624ZM111.647 200.084H119.619V192.112H111.647V200.084ZM119.617 176.17H111.645V184.142H119.617V176.17ZM103.675 184.142V192.114H111.647V184.142H103.675ZM119.617 192.112H127.589V184.14H119.617V192.112ZM127.589 32.6961H119.617V40.6681V48.64V56.6119V64.5839V72.5558V80.5277H127.589V72.5558H135.561V64.5839H143.532V56.6119H151.504V48.6377H159.476V40.6658V32.6938V24.7219V16.75H151.5V8.77805H143.528V16.75H135.556V24.7219H127.584V32.6961H127.589ZM79.7639 56.6096H87.7358V64.5816H95.7077V72.5535H103.68V80.5254H111.652V72.5535V64.5816V56.6096V48.6377V40.6658V32.6938H103.68V24.7219H95.7054V16.75H87.7335V8.77805H79.7616V16.75H71.7896V24.7219V32.6938V40.6658V48.6377H79.7616V56.6096H79.7639ZM151.5 144.287H143.528V136.315H135.556V128.343H127.584V120.371H119.612V128.343V136.315V144.287V152.259V160.231V168.203H127.584V176.175H135.556V184.147H143.528V192.119H151.5V184.147H159.472V176.175V168.203V160.231V152.259H151.5V144.287ZM103.675 168.201H111.647V160.229V152.259V144.287V136.315V128.343V120.371H103.675V128.343H95.7054V136.315H87.7335V144.287H79.7616V152.259H71.7896V160.231V168.203V176.175V184.147H79.7616V192.119H87.7335V184.147H95.7054V176.175H103.677V168.201H103.675ZM31.9369 80.5208H39.9088V88.4928H47.8807V96.4647H55.8527H63.8246H71.7965H79.7684H87.7404H95.7123V88.4928H87.7404V80.5208H79.7684V72.5489H71.7965V64.577H63.8246V56.605H55.8527H47.8784H39.9065H31.9346V64.577H23.9626V72.5489H31.9346V80.5208H31.9369ZM71.7919 128.346H79.7639V120.374H87.7358V112.402H95.7077V104.43H87.7358H79.7639H71.7919H63.82H55.8481H47.8784V112.402H39.9065V120.374H31.9346V128.346H23.9626V136.317H31.9346V144.289H39.9065H47.8784H55.8504H63.8223V136.317H71.7942V128.346H71.7919ZM159.472 72.5512H151.5V80.5231H143.528V88.4951H135.556V96.467H143.528H151.5H159.472H167.444H175.416H183.388V88.4951H191.359V80.5231H199.331V72.5512H207.303V64.5793H199.331V56.6073H191.359H183.388H175.416H167.444V64.5793H159.472V72.5512ZM199.325 120.376H191.353V112.404H183.381V104.432H175.409H167.437H159.465H151.5H143.528H135.556V112.404H143.528V120.376H151.5V128.348H159.472V136.32H167.444V144.292H175.416H183.388H191.359H199.331V136.32H207.303V128.348H199.331V120.376H199.325Z" fill="#0D733F"/>
</svg>
