<svg width="192" height="49" viewBox="0 0 192 49" fill="none" xmlns="http://www.w3.org/2000/svg">
<path d="M26.8367 27.4748V25.5809H28.7306V27.4748H26.8367ZM28.73 21.7942H26.8361V23.6881H28.73V21.7942ZM24.9428 23.6875V25.5814L26.8367 25.5809L26.8361 23.6881L24.9428 23.6875ZM30.624 25.5814V23.6875L28.73 23.6881L28.7306 25.5809L30.624 25.5814ZM26.8367 6.64505H28.7306V4.75114H26.8367V6.64505ZM28.73 0.963867H26.8361V2.85778H28.73V0.963867ZM26.8361 2.85778H24.9428V4.75169L26.8367 4.75114L26.8361 2.85778ZM30.624 4.75114V2.85723L28.73 2.85778L28.7306 4.75114H30.624ZM51.4537 27.4748H53.3476V25.5809H51.4537V27.4748ZM53.3476 21.7942H51.4537V23.6881H53.3476V21.7942ZM49.5604 23.6875V25.5814L51.4537 25.5809V23.6881L49.5604 23.6875ZM53.3476 23.6881V25.5809L55.2415 25.5814V23.6875L53.3476 23.6881ZM2.21911 27.4748H4.11302V25.5809H2.21911V27.4748ZM4.11247 21.7942H2.21911V23.6881H4.11302L4.11247 21.7942ZM0.325195 23.6875V25.5814L2.21911 25.5809V23.6881L0.325195 23.6875ZM6.00638 23.6875L4.11302 23.6881V25.5809L6.00638 25.5814V23.6875ZM26.8367 48.3051H28.7306V46.4112H26.8367V48.3051ZM28.73 42.6239H26.8361V44.5178H28.73V42.6239ZM24.9428 44.5178V46.4117L26.8367 46.4112L26.8361 44.5178H24.9428ZM28.7306 46.4112H30.624V44.5173L28.73 44.5178L28.7306 46.4112ZM30.624 8.53842H28.73V19.9019H30.624V18.008H32.5179V16.1141H34.4118V14.2202H36.3057V12.3257H38.1996V4.75006H36.3046V2.85615H34.4107V4.75006H32.5168V6.64397H30.6229V8.53842H30.624ZM19.2621 14.2196H21.156V16.1135H23.0499V18.0074H24.9439V19.9013H26.8378V8.53788H24.9439V6.64397H23.0494V4.75006H21.1555V2.85615H19.2616V4.75006H17.3677V12.3257H19.2616L19.2621 14.2196ZM36.3046 35.0494H34.4107V33.1554H32.5168V31.2615H30.6229V29.3676H28.729V40.7311H30.6229V42.625H32.5168V44.5189H34.4107V46.4128H36.3046V44.5189H38.1985V36.9433H36.3046V35.0494ZM24.9428 40.7305H26.8367V29.3676H24.9428V31.2615H23.0494V33.1554H21.1555V35.0494H19.2616V36.9433H17.3677V44.5189H19.2616V46.4128H21.1555V44.5189H23.0494V42.625H24.9433L24.9428 40.7305ZM7.89975 19.9003H9.79366V21.7942H11.6876V23.6881H23.051V21.7942H21.1571V19.9003H19.2632V18.0063H17.3693V16.1124H15.4754V14.2185H7.89921V16.1124H6.0053V18.0063H7.89921L7.89975 19.9003ZM17.3682 31.2621H19.2621V29.3682H21.156V27.4743H23.0499V25.5804H11.687V27.4743H9.79312V29.3682H7.89921V31.2621H6.0053V33.156H7.89921V35.0499H15.4749V33.156H17.3688L17.3682 31.2621ZM38.1985 18.0069H36.3046V19.9008H34.4107V21.7947H32.5168V23.6886H43.8802V21.7947H45.7742V19.9008H47.6681V18.0069H49.562V16.113H47.6681V14.2191H40.0924V16.113H38.1985V18.0069ZM45.7725 29.3687V27.4748H43.8786V25.5809H32.5168V27.4748H34.4107V29.3687H36.3046V31.2626H38.1985V33.1565H40.0924V35.0504H47.6681V33.1565H49.562V31.2626H47.6681V29.3687H45.7725Z" fill="#0D733F"/>
<path d="M94.9295 27.4748V25.5809H96.8234V27.4748H94.9295ZM96.8228 21.7942H94.9289V23.6881H96.8228V21.7942ZM93.0355 23.6875V25.5814L94.9295 25.5809L94.9289 23.6881L93.0355 23.6875ZM98.7167 25.5814V23.6875L96.8228 23.6881L96.8234 25.5809L98.7167 25.5814ZM94.9295 6.64505H96.8234V4.75114H94.9295V6.64505ZM96.8228 0.963867H94.9289V2.85778H96.8228V0.963867ZM94.9289 2.85778H93.0355V4.75169L94.9295 4.75114L94.9289 2.85778ZM98.7167 4.75114V2.85723L96.8228 2.85778L96.8234 4.75114H98.7167ZM119.546 27.4748H121.44V25.5809H119.546V27.4748ZM121.44 21.7942H119.546V23.6881H121.44V21.7942ZM117.653 23.6875V25.5814L119.546 25.5809V23.6881L117.653 23.6875ZM121.44 23.6881V25.5809L123.334 25.5814V23.6875L121.44 23.6881ZM70.3119 27.4748H72.2058V25.5809H70.3119V27.4748ZM72.2052 21.7942H70.3119V23.6881H72.2058L72.2052 21.7942ZM68.418 23.6875V25.5814L70.3119 25.5809V23.6881L68.418 23.6875ZM74.0992 23.6875L72.2058 23.6881V25.5809L74.0992 25.5814V23.6875ZM94.9295 48.3051H96.8234V46.4112H94.9295V48.3051ZM96.8228 42.6239H94.9289V44.5178H96.8228V42.6239ZM93.0355 44.5178V46.4117L94.9295 46.4112L94.9289 44.5178H93.0355ZM96.8234 46.4112H98.7167V44.5173L96.8228 44.5178L96.8234 46.4112ZM98.7167 8.53842H96.8228V19.9019H98.7167V18.008H100.611V16.1141H102.505V14.2202H104.398V12.3257H106.292V4.75006H104.397V2.85615H102.503V4.75006H100.61V6.64397H98.7156V8.53842H98.7167ZM87.3549 14.2196H89.2488V16.1135H91.1427V18.0074H93.0366V19.9013H94.9305V8.53788H93.0366V6.64397H91.1422V4.75006H89.2483V2.85615H87.3544V4.75006H85.4604V12.3257H87.3544L87.3549 14.2196ZM104.397 35.0494H102.503V33.1554H100.61V31.2615H98.7156V29.3676H96.8217V40.7311H98.7156V42.625H100.61V44.5189H102.503V46.4128H104.397V44.5189H106.291V36.9433H104.397V35.0494ZM93.0355 40.7305H94.9295V29.3676H93.0355V31.2615H91.1422V33.1554H89.2483V35.0494H87.3544V36.9433H85.4604V44.5189H87.3544V46.4128H89.2483V44.5189H91.1422V42.625H93.0361L93.0355 40.7305ZM75.9925 19.9003H77.8864V21.7942H79.7803V23.6881H91.1438V21.7942H89.2499V19.9003H87.356V18.0063H85.4621V16.1124H83.5682V14.2185H75.992V16.1124H74.0981V18.0063H75.992L75.9925 19.9003ZM85.461 31.2621H87.3549V29.3682H89.2488V27.4743H91.1427V25.5804H79.7798V27.4743H77.8859V29.3682H75.992V31.2621H74.0981V33.156H75.992V35.0499H83.5676V33.156H85.4615L85.461 31.2621ZM106.291 18.0069H104.397V19.9008H102.503V21.7947H100.61V23.6886H111.973V21.7947H113.867V19.9008H115.761V18.0069H117.655V16.113H115.761V14.2191H108.185V16.113H106.291V18.0069ZM113.865 29.3687V27.4748H111.971V25.5809H100.61V27.4748H102.503V29.3687H104.397V31.2626H106.291V33.1565H108.185V35.0504H115.761V33.1565H117.655V31.2626H115.761V29.3687H113.865Z" fill="#0D733F"/>
<path d="M163.023 27.4748V25.5809H164.917V27.4748H163.023ZM164.917 21.7942H163.023V23.6881H164.917V21.7942ZM161.129 23.6875V25.5814L163.023 25.5809L163.023 23.6881L161.129 23.6875ZM166.81 25.5814V23.6875L164.917 23.6881L164.917 25.5809L166.81 25.5814ZM163.023 6.64505H164.917V4.75114H163.023V6.64505ZM164.917 0.963867H163.023V2.85778H164.917V0.963867ZM163.023 2.85778H161.129V4.75169L163.023 4.75114L163.023 2.85778ZM166.81 4.75114V2.85723L164.917 2.85778L164.917 4.75114H166.81ZM187.64 27.4748H189.534V25.5809H187.64V27.4748ZM189.534 21.7942H187.64V23.6881H189.534V21.7942ZM185.747 23.6875V25.5814L187.64 25.5809V23.6881L185.747 23.6875ZM189.534 23.6881V25.5809L191.428 25.5814V23.6875L189.534 23.6881ZM138.406 27.4748H140.3V25.5809H138.406V27.4748ZM140.299 21.7942H138.406V23.6881H140.3L140.299 21.7942ZM136.512 23.6875V25.5814L138.406 25.5809V23.6881L136.512 23.6875ZM142.193 23.6875L140.3 23.6881V25.5809L142.193 25.5814V23.6875ZM163.023 48.3051H164.917V46.4112H163.023V48.3051ZM164.917 42.6239H163.023V44.5178H164.917V42.6239ZM161.129 44.5178V46.4117L163.023 46.4112L163.023 44.5178H161.129ZM164.917 46.4112H166.81V44.5173L164.917 44.5178L164.917 46.4112ZM166.81 8.53842H164.917V19.9019H166.81V18.008H168.704V16.1141H170.598V14.2202H172.492V12.3257H174.386V4.75006H172.491V2.85615H170.597V4.75006H168.703V6.64397H166.809V8.53842H166.81ZM155.449 14.2196H157.343V16.1135H159.236V18.0074H161.13V19.9013H163.024V8.53788H161.13V6.64397H159.236V4.75006H157.342V2.85615H155.448V4.75006H153.554V12.3257H155.448L155.449 14.2196ZM172.491 35.0494H170.597V33.1554H168.703V31.2615H166.809V29.3676H164.915V40.7311H166.809V42.625H168.703V44.5189H170.597V46.4128H172.491V44.5189H174.385V36.9433H172.491V35.0494ZM161.129 40.7305H163.023V29.3676H161.129V31.2615H159.236V33.1554H157.342V35.0494H155.448V36.9433H153.554V44.5189H155.448V46.4128H157.342V44.5189H159.236V42.625H161.13L161.129 40.7305ZM144.086 19.9003H145.98V21.7942H147.874V23.6881H159.238V21.7942H157.344V19.9003H155.45V18.0063H153.556V16.1124H151.662V14.2185H144.086V16.1124H142.192V18.0063H144.086L144.086 19.9003ZM153.555 31.2621H155.449V29.3682H157.343V27.4743H159.236V25.5804H147.874V27.4743H145.98V29.3682H144.086V31.2621H142.192V33.156H144.086V35.0499H151.661V33.156H153.555L153.555 31.2621ZM174.385 18.0069H172.491V19.9008H170.597V21.7947H168.703V23.6886H180.067V21.7947H181.961V19.9008H183.855V18.0069H185.749V16.113H183.855V14.2191H176.279V16.113H174.385V18.0069ZM181.959 29.3687V27.4748H180.065V25.5809H168.703V27.4748H170.597V29.3687H172.491V31.2626H174.385V33.1565H176.279V35.0504H183.855V33.1565H185.749V31.2626H183.855V29.3687H181.959Z" fill="#0D733F"/>
</svg>
