<svg width="169" height="145" viewBox="0 0 169 145" fill="none" xmlns="http://www.w3.org/2000/svg">
<path d="M81.1123 81.1107V75.3162H86.9068V81.1107H81.1123ZM86.9051 63.7306H81.1107V69.5251H86.9051V63.7306ZM75.3179 69.5234V75.3179H81.1123V69.5234H75.3179ZM92.6996 75.3179V69.5234H86.9051V75.3179H92.6996ZM81.1123 17.3817H86.9068V11.5872H81.1123V17.3817ZM86.9051 0H81.1107V5.79445H86.9051V0ZM81.1123 5.79445H75.3179V11.5889H81.1123V5.79445ZM92.6996 11.5872V5.79279H86.9051V11.5872H92.6996ZM156.429 81.1107H162.223V75.3162H156.429V81.1107ZM162.223 63.7306H156.429V69.5251H162.223V63.7306ZM150.636 69.5234V75.3179H156.43V69.5234H150.636ZM162.223 69.5234V75.3179H168.017V69.5234H162.223ZM5.79445 81.1107H11.5889V75.3162H5.79445V81.1107ZM11.5872 63.7306H5.79445V69.5251H11.5889V63.7306H11.5872ZM0 69.5234V75.3179H5.79445V69.5234H0ZM17.3817 69.5234H11.5872V75.3179H17.3817V69.5234ZM81.1123 144.841H86.9068V139.047H81.1123V144.841ZM86.9051 127.46H81.1107V133.254H86.9051V127.46ZM75.3179 133.254V139.049H81.1123V133.254H75.3179ZM86.9051 139.047H92.6996V133.252H86.9051V139.047ZM92.6996 23.1745H86.9051V28.9689V34.7634V40.5578V46.3523V52.1467V57.9412H92.6996V52.1467H98.494V46.3523H104.288V40.5578H110.083V34.7617H115.877V28.9673V23.1728V17.3784V11.5839H110.08V5.78946H104.285V11.5839H98.4907V17.3784H92.6963V23.1745H92.6996ZM57.9379 40.5562H63.7323V46.3506H69.5268V52.1451H75.3212V57.9395H81.1157V52.1451V46.3506V40.5562V34.7617V28.9673V23.1728H75.3212V17.3784H69.5251V11.5839H63.7307V5.78946H57.9362V11.5839H52.1417V17.3784V23.1728V28.9673V34.7617H57.9362V40.5562H57.9379ZM110.08 104.285H104.285V98.4907H98.4907V92.6962H92.6963V86.9018H86.9018V92.6962V98.4907V104.285V110.08V115.874V121.668H92.6963V127.463H98.4907V133.257H104.285V139.052H110.08V133.257H115.874V127.463V121.668V115.874V110.08H110.08V104.285ZM75.3179 121.667H81.1123V115.872V110.08V104.285V98.4907V92.6962V86.9018H75.3179V92.6962H69.5251V98.4907H63.7307V104.285H57.9362V110.08H52.1417V115.874V121.668V127.463V133.257H57.9362V139.052H63.7307V133.257H69.5251V127.463H75.3196V121.667H75.3179ZM23.1745 57.9362H28.9689V63.7306H34.7634V69.5251H40.5578H46.3523H52.1467H57.9412H63.7356H69.5301V63.7306H63.7356V57.9362H57.9412V52.1417H52.1467V46.3473H46.3523V40.5528H40.5578H34.7617H28.9673H23.1728V46.3473H17.3784V52.1417H23.1728V57.9362H23.1745ZM52.1434 92.6979H57.9379V86.9035H63.7323V81.109H69.5268V75.3146H63.7323H57.9379H52.1434H46.349H40.5545H34.7617V81.109H28.9673V86.9035H23.1728V92.6979H17.3784V98.4924H23.1728V104.287H28.9673H34.7617H40.5562H46.3506V98.4924H52.1451V92.6979H52.1434ZM115.874 52.1434H110.08V57.9379H104.285V63.7323H98.4907V69.5268H104.285H110.08H115.874H121.669H127.463H133.257V63.7323H139.052V57.9379H144.846V52.1434H150.641V46.3489H144.846V40.5545H139.052H133.257H127.463H121.669V46.3489H115.874V52.1434ZM144.841 86.9051H139.047V81.1107H133.252V75.3162H127.458H121.664H115.869H110.08H104.285H98.4907V81.1107H104.285V86.9051H110.08V92.6996H115.874V98.494H121.669V104.288H127.463H133.257H139.052H144.846V98.494H150.641V92.6996H144.846V86.9051H144.841Z" fill="#0D733F"/>
</svg>
