<svg width="230" height="203" viewBox="0 0 230 203" fill="none" xmlns="http://www.w3.org/2000/svg">
<path d="M170.826 170.491V158.352H182.965V170.491H170.826ZM182.961 134.082H170.823V146.221H182.961V134.082ZM158.688 146.217V158.356H170.826V146.217H158.688ZM195.1 158.356V146.217H182.961V158.356H195.1ZM170.826 36.9882H182.965V24.8497H170.826V36.9882ZM182.961 0.576172H170.823V12.7147H182.961V0.576172ZM170.826 12.7147H158.688V24.8532H170.826V12.7147ZM195.1 24.8497V12.7112H182.961V24.8497H195.1ZM328.602 170.491H340.741V158.352H328.602V170.491ZM340.741 134.082H328.602V146.221H340.741V134.082ZM316.467 146.217V158.356H328.606V146.217H316.467ZM340.741 146.217V158.356H352.879V146.217H340.741ZM13.0467 170.491H25.1852V158.352H13.0467V170.491ZM25.1817 134.082H13.0467V146.221H25.1852V134.082H25.1817ZM0.908203 146.217V158.356H13.0467V146.217H0.908203ZM37.3202 146.217H25.1817V158.356H37.3202V146.217ZM170.826 303.997H182.965V291.858H170.826V303.997ZM182.961 267.585H170.823V279.723H182.961V267.585ZM158.688 279.723V291.862H170.826V279.723H158.688ZM182.961 291.858H195.1V279.72H182.961V291.858ZM195.1 49.1232H182.961V61.2617V73.4002V85.5387V97.6772V109.816V121.954H195.1V109.816H207.238V97.6772H219.377V85.5387H231.515V73.3967H243.654V61.2582V49.1197V36.9812V24.8427H231.508V12.7042H219.37V24.8427H207.231V36.9812H195.093V49.1232H195.1ZM122.279 85.5352H134.418V97.6737H146.556V109.812H158.695V121.951H170.833V109.812V97.6737V85.5352V73.3967V61.2582V49.1197H158.695V36.9812H146.553V24.8427H134.414V12.7042H122.276V24.8427H110.137V36.9812V49.1197V61.2582V73.3967H122.276V85.5352H122.279ZM231.508 219.038H219.37V206.899H207.231V194.761H195.093V182.622H182.954V194.761V206.899V219.038V231.176V243.315V255.453H195.093V267.592H207.231V279.73H219.37V291.869H231.508V279.73H243.647V267.592V255.453V243.315V231.176H231.508V219.038ZM158.688 255.45H170.826V243.311V231.176V219.038V206.899V194.761V182.622H158.688V194.761H146.553V206.899H134.414V219.038H122.276V231.176H110.137V243.315V255.453V267.592V279.73H122.276V291.869H134.414V279.73H146.553V267.592H158.691V255.45H158.688ZM49.4552 121.944H61.5937V134.082H73.7322V146.221H85.8707H98.0092H110.148H122.286H134.425H146.563V134.082H134.425V121.944H122.286V109.805H110.148V97.6667H98.0092V85.5282H85.8707H73.7288H61.5903H49.4518V97.6667H37.3133V109.805H49.4518V121.944H49.4552ZM110.141 194.764H122.279V182.626H134.418V170.487H146.556V158.349H134.418H122.279H110.141H98.0023H85.8638H73.7288V170.487H61.5903V182.626H49.4518V194.764H37.3133V206.903H49.4518V219.041H61.5903H73.7288H85.8673H98.0058V206.903H110.144V194.764H110.141ZM243.647 109.809H231.508V121.947H219.37V134.086H207.231V146.224H219.37H231.508H243.647H255.785H267.924H280.062V134.086H292.201V121.947H304.339V109.809H316.478V97.6702H304.339V85.5317H292.201H280.062H267.924H255.785V97.6702H243.647V109.809ZM304.329 182.629H292.19V170.491H280.052V158.352H267.913H255.775H243.636H231.508H219.37H207.231V170.491H219.37V182.629H231.508V194.768H243.647V206.906H255.785V219.045H267.924H280.062H292.201H304.339V206.906H316.478V194.768H304.339V182.629H304.329Z" fill="white"/>
</svg>
